<svg width="24" height="24" viewBox="0 0 24 24" fill="none" xmlns="http://www.w3.org/2000/svg">
<path fill-rule="evenodd" clip-rule="evenodd" d="M15.3787 2C15.7503 2 16.0518 2.30154 16.0518 2.67307L16.0522 3.43393C17.3626 3.52376 18.4508 3.9726 19.2211 4.74444C20.062 5.58892 20.5044 6.80315 20.5 8.25968V16.447C20.5 19.4372 18.601 21.2949 15.5452 21.2949H7.95472C4.89897 21.2949 3 19.4112 3 16.3788V8.25789C3 5.43743 4.6935 3.62699 7.45547 3.43423L7.45602 2.67307C7.45602 2.30154 7.75756 2 8.1291 2C8.50063 2 8.80217 2.30154 8.80217 2.67307L8.8019 3.41705H14.7052L14.7057 2.67307C14.7057 2.30154 15.0072 2 15.3787 2ZM19.1538 9.99074H4.34615V16.3788C4.34615 18.6816 5.62768 19.9487 7.95472 19.9487H15.5452C17.8723 19.9487 19.1538 18.7049 19.1538 16.447L19.1538 9.99074ZM15.7446 15.6377C16.1162 15.6377 16.4177 15.9392 16.4177 16.3107C16.4177 16.6823 16.1162 16.9838 15.7446 16.9838C15.3731 16.9838 15.068 16.6823 15.068 16.3107C15.068 15.9392 15.365 15.6377 15.7365 15.6377H15.7446ZM11.7623 15.6377C12.1338 15.6377 12.4353 15.9392 12.4353 16.3107C12.4353 16.6823 12.1338 16.9838 11.7623 16.9838C11.3907 16.9838 11.0856 16.6823 11.0856 16.3107C11.0856 15.9392 11.3826 15.6377 11.7542 15.6377H11.7623ZM7.77156 15.6377C8.1431 15.6377 8.44463 15.9392 8.44463 16.3107C8.44463 16.6823 8.1431 16.9838 7.77156 16.9838C7.40002 16.9838 7.094 16.6823 7.094 16.3107C7.094 15.9392 7.39194 15.6377 7.76348 15.6377H7.77156ZM15.7446 12.1496C16.1162 12.1496 16.4177 12.4511 16.4177 12.8227C16.4177 13.1942 16.1162 13.4957 15.7446 13.4957C15.3731 13.4957 15.068 13.1942 15.068 12.8227C15.068 12.4511 15.365 12.1496 15.7365 12.1496H15.7446ZM11.7623 12.1496C12.1338 12.1496 12.4353 12.4511 12.4353 12.8227C12.4353 13.1942 12.1338 13.4957 11.7623 13.4957C11.3907 13.4957 11.0856 13.1942 11.0856 12.8227C11.0856 12.4511 11.3826 12.1496 11.7542 12.1496H11.7623ZM7.77156 12.1496C8.1431 12.1496 8.44463 12.4511 8.44463 12.8227C8.44463 13.1942 8.1431 13.4957 7.77156 13.4957C7.40002 13.4957 7.094 13.1942 7.094 12.8227C7.094 12.4511 7.39194 12.1496 7.76348 12.1496H7.77156ZM14.7052 4.76319H8.8019L8.80217 5.62652C8.80217 5.99806 8.50063 6.2996 8.1291 6.2996C7.75756 6.2996 7.45602 5.99806 7.45602 5.62652L7.45554 4.78357C5.44509 4.95246 4.34615 6.17114 4.34615 8.25789V8.64459H19.1538L19.1538 8.25789C19.1574 7.14956 18.8594 6.28802 18.268 5.69572C17.7489 5.17503 16.9899 4.86407 16.0526 4.784L16.0518 5.62652C16.0518 5.99806 15.7503 6.2996 15.3787 6.2996C15.0072 6.2996 14.7057 5.99806 14.7057 5.62652L14.7052 4.76319Z" fill="#373A43"/>
</svg>
