<svg width="24" height="24" viewBox="0 0 24 24" fill="none" xmlns="http://www.w3.org/2000/svg">
<path d="M15.3174 3.0382C15.901 3.28157 16.3137 3.72025 16.6836 4.36337L16.8055 4.58533L17.2578 5.49381L17.2726 5.51918L17.2862 5.54126L17.3246 5.59627C17.5306 5.83147 17.8754 5.97356 18.103 5.97356C20.1878 5.97356 21.8905 7.68885 21.9949 9.84523L22 10.0552V16.1264C22 18.9258 19.8898 21.2102 17.2455 21.3285L17.03 21.3333H6.97C4.29734 21.3333 2.11747 19.1229 2.00459 16.3523L2 16.1264V10.0552C2 7.8013 3.74498 5.97356 5.897 5.97356C6.12377 5.97356 6.46908 5.83127 6.67544 5.59627L6.68255 5.58749L6.69145 5.57528L6.74287 5.49264L7.19382 4.58562C7.59577 3.82028 8.03303 3.30866 8.68188 3.0381C9.87089 2.54279 14.1293 2.54279 15.3174 3.0382ZM9.23635 4.49828C9.01496 4.5906 8.81452 4.80428 8.60062 5.17473L8.50802 5.34319L8.12316 6.12275L8.02843 6.30235C7.94936 6.44015 7.87026 6.55647 7.77995 6.65956C7.31953 7.18387 6.65847 7.4867 6.07082 7.53743L5.897 7.54505L5.7329 7.55084C4.53997 7.63535 3.58621 8.63433 3.50553 9.88342L3.5 10.0552V16.1264C3.5 18.067 4.95174 19.6529 6.77961 19.7564L6.97 19.7618H17.03C18.8819 19.7618 20.396 18.2403 20.4949 16.3258L20.5 16.1264V10.0552C20.5 8.72704 19.5142 7.63919 18.2671 7.55084L18.103 7.54505L17.9289 7.53742C17.3403 7.48669 16.6793 7.18378 16.2194 6.65886C16.1303 6.55714 16.0517 6.44164 15.973 6.30501L15.9542 6.27114L15.9317 6.22907L15.8156 6.00095L15.4917 5.34348C15.2729 4.92745 15.0726 4.67319 14.8564 4.5454L14.7626 4.49828L14.6433 4.45673C13.6142 4.15198 10.0344 4.16583 9.23635 4.49828ZM11.9997 9.16127C14.1699 9.16127 15.9287 11.0039 15.9287 13.2775C15.9287 15.5512 14.1699 17.3938 11.9997 17.3938C9.82949 17.3938 8.0707 15.5512 8.0707 13.2775C8.0707 11.0039 9.82949 9.16127 11.9997 9.16127ZM11.9997 10.7328C10.6579 10.7328 9.5707 11.8718 9.5707 13.2775C9.5707 14.6833 10.6579 15.8223 11.9997 15.8223C13.3415 15.8223 14.4287 14.6833 14.4287 13.2775C14.4287 11.8718 13.3415 10.7328 11.9997 10.7328ZM17.5043 8.42896C18.0566 8.42896 18.5043 8.89801 18.5043 9.47662C18.5043 10.0139 18.1183 10.4567 17.6209 10.5172L17.5043 10.5243C16.943 10.5243 16.4953 10.0552 16.4953 9.47662C16.4953 8.93934 16.8813 8.49653 17.3787 8.43601L17.5043 8.42896Z" fill="#373A43"/>
</svg>
