<svg width="50" height="50" viewBox="0 0 50 50" fill="none" xmlns="http://www.w3.org/2000/svg">
<g filter="url(#filter0_dd_605_8467)">
<path d="M5 25C5 13.9543 13.9543 5 25 5C36.0457 5 45 13.9543 45 25C45 36.0457 36.0457 45 25 45C13.9543 45 5 36.0457 5 25Z" fill="#F3F4F6"/>
<path d="M33.0001 25.346C32.8733 26.7185 31.8409 28.5743 30.9979 29.6647C30.1548 30.7551 29.0186 31.5829 27.7222 32.0512C26.4258 32.5194 25.0229 32.6088 23.6776 32.3088C22.3323 32.0088 21.1002 31.3319 20.1256 30.3573C19.1509 29.3827 18.474 28.1506 18.1741 26.8053C17.8741 25.46 17.9635 24.0571 18.4317 22.7607C18.9 21.4643 19.7278 20.3281 20.8182 19.485C21.9086 18.6419 23.2166 18.1268 24.5891 18C23.7856 19.0871 23.3989 20.4265 23.4994 21.7747C23.6 23.1228 24.181 24.39 25.1369 25.346C26.0928 26.3019 27.3601 26.8829 28.7082 26.9835C30.0563 27.084 31.3958 26.6973 32.4829 25.8938L33.0001 25.346Z" fill="#373A43" stroke="#373A43" stroke-width="1.5" stroke-linecap="round" stroke-linejoin="round"/>
</g>
<defs>
<filter id="filter0_dd_605_8467" x="0" y="0" width="50" height="50" filterUnits="userSpaceOnUse" color-interpolation-filters="sRGB">
<feFlood flood-opacity="0" result="BackgroundImageFix"/>
<feColorMatrix in="SourceAlpha" type="matrix" values="0 0 0 0 0 0 0 0 0 0 0 0 0 0 0 0 0 0 127 0" result="hardAlpha"/>
<feOffset/>
<feGaussianBlur stdDeviation="2.5"/>
<feColorMatrix type="matrix" values="0 0 0 0 0.831373 0 0 0 0 0.858824 0 0 0 0 0.917647 0 0 0 1 0"/>
<feBlend mode="normal" in2="BackgroundImageFix" result="effect1_dropShadow_605_8467"/>
<feColorMatrix in="SourceAlpha" type="matrix" values="0 0 0 0 0 0 0 0 0 0 0 0 0 0 0 0 0 0 127 0" result="hardAlpha"/>
<feOffset dx="-2" dy="-2"/>
<feGaussianBlur stdDeviation="1"/>
<feColorMatrix type="matrix" values="0 0 0 0 1 0 0 0 0 1 0 0 0 0 1 0 0 0 1 0"/>
<feBlend mode="normal" in2="effect1_dropShadow_605_8467" result="effect2_dropShadow_605_8467"/>
<feBlend mode="normal" in="SourceGraphic" in2="effect2_dropShadow_605_8467" result="shape"/>
</filter>
</defs>
</svg>
