<svg width="24" height="24" viewBox="0 0 24 24" fill="none" xmlns="http://www.w3.org/2000/svg">
<path d="M19.5969 6.30315C19.1839 5.89001 18.6936 5.56228 18.154 5.33868C17.6143 5.11509 17.0359 5 16.4518 5C15.8677 5 15.2893 5.11509 14.7497 5.33868C14.21 5.56228 13.7197 5.89001 13.3068 6.30315L12.4498 7.16015L11.5928 6.30315C10.7587 5.46903 9.62737 5.00043 8.44775 5.00043C7.26813 5.00043 6.13683 5.46903 5.30272 6.30315C4.4686 7.13726 4 8.26857 4 9.44818C4 10.6278 4.4686 11.7591 5.30272 12.5932L6.15972 13.4502L12.4498 19.7403L18.7399 13.4502L19.5969 12.5932C20.01 12.1803 20.3377 11.69 20.5613 11.1503C20.7849 10.6107 20.9 10.0323 20.9 9.44818C20.9 8.86406 20.7849 8.28565 20.5613 7.74602C20.3377 7.20638 20.01 6.71609 19.5969 6.30315V6.30315Z" stroke="#373A43" stroke-width="1.5" stroke-linecap="round" stroke-linejoin="round"/>
</svg>
