<svg width="62" height="90" viewBox="0 0 62 90" fill="none" xmlns="http://www.w3.org/2000/svg">
<path d="M13.1911 62.1307C13.1911 62.9553 13.1312 63.6268 13.0049 64.1322C12.8786 64.6442 12.6857 65.0698 12.4197 65.4155C12.1538 65.7613 11.8146 66.0273 11.4024 66.2002C10.9901 66.3797 10.4848 66.4662 9.8996 66.4662C9.63363 66.4662 9.40754 66.4462 9.22136 66.4196C9.03517 66.3864 8.89554 66.3465 8.79579 66.3066C8.69605 66.2667 8.62956 66.2201 8.58966 66.1603C8.54976 66.1071 8.52317 66.0472 8.50987 65.9741C8.48992 65.901 8.48327 65.8278 8.47662 65.7547C8.46997 65.6815 8.46997 65.5884 8.46997 65.482C8.46997 65.3358 8.47662 65.2028 8.48992 65.0964C8.50322 64.99 8.52317 64.9035 8.54976 64.837C8.57636 64.7706 8.60961 64.724 8.64951 64.6974C8.6894 64.6708 8.73595 64.6509 8.78914 64.6509C8.83569 64.6509 8.93543 64.6642 9.08172 64.6841C9.22801 64.7041 9.39424 64.7174 9.58708 64.7174C9.85971 64.7174 10.0924 64.6775 10.2853 64.591C10.4781 64.5112 10.6377 64.3716 10.764 64.1854C10.8904 63.9992 10.9768 63.7598 11.0367 63.4606C11.0965 63.1614 11.1231 62.7092 11.1231 62.1108V50.4676C11.1231 50.4077 11.1364 50.3545 11.1696 50.308C11.2029 50.2614 11.2561 50.2149 11.3359 50.1817C11.4157 50.1484 11.5221 50.1218 11.6551 50.1085C11.788 50.0952 11.9543 50.0819 12.1538 50.0819C12.3533 50.0819 12.5195 50.0886 12.6525 50.1085C12.7855 50.1285 12.8919 50.1484 12.9717 50.1817C13.0514 50.2149 13.1046 50.2548 13.1379 50.308C13.1711 50.3545 13.1844 50.4144 13.1844 50.4676V62.1307H13.1911Z" fill="#38D0B7"/>
<path d="M25.3996 61.652C25.3996 61.7518 25.3663 61.8249 25.2998 61.8781C25.2333 61.9247 25.1402 61.9646 25.0272 61.9912C24.9075 62.0177 24.7413 62.031 24.5152 62.031C24.3024 62.031 24.1295 62.0177 24.0032 61.9912C23.8768 61.9646 23.7838 61.9313 23.7239 61.8781C23.6641 61.8249 23.6375 61.7518 23.6375 61.652V60.5349C23.1521 61.0536 22.6068 61.4592 22.0084 61.7518C21.4099 62.0443 20.7716 62.184 20.1 62.184C19.5148 62.184 18.9829 62.1108 18.5041 61.9579C18.0253 61.805 17.6264 61.5855 17.2872 61.293C16.9548 61.0004 16.6954 60.648 16.5093 60.229C16.3231 59.8101 16.23 59.3247 16.23 58.7928C16.23 58.1611 16.3563 57.6158 16.6156 57.157C16.875 56.6915 17.2407 56.3125 17.7195 56C18.1982 55.6941 18.7834 55.4614 19.4816 55.3151C20.1731 55.1622 20.9577 55.0824 21.8288 55.0824H23.3648V54.2113C23.3648 53.7791 23.3183 53.4001 23.2319 53.0676C23.1388 52.7351 22.9925 52.4625 22.793 52.243C22.5869 52.0236 22.3275 51.8574 22.0084 51.7443C21.6892 51.6313 21.2902 51.5781 20.8181 51.5781C20.3127 51.5781 19.8606 51.6379 19.4616 51.7576C19.0626 51.8773 18.7102 52.0103 18.4044 52.1566C18.1051 52.3029 17.8524 52.4359 17.6463 52.5556C17.4402 52.6753 17.2939 52.7351 17.1942 52.7351C17.1277 52.7351 17.0678 52.7152 17.0213 52.6819C16.9681 52.6487 16.9282 52.6021 16.8883 52.5356C16.8484 52.4691 16.8218 52.3827 16.8085 52.2829C16.7885 52.1766 16.7819 52.0635 16.7819 51.9438C16.7819 51.7377 16.7952 51.5715 16.8218 51.4518C16.8484 51.3321 16.9215 51.219 17.0346 51.1126C17.1476 51.0063 17.3404 50.8799 17.6131 50.7336C17.8857 50.5873 18.1982 50.4543 18.5573 50.3347C18.9097 50.215 19.302 50.1152 19.7209 50.0354C20.1399 49.9556 20.5654 49.9157 20.9976 49.9157C21.8022 49.9157 22.4805 50.0088 23.0457 50.1884C23.6109 50.3679 24.063 50.6339 24.4088 50.9863C24.7546 51.3387 25.0073 51.7709 25.1668 52.2962C25.3264 52.8149 25.3996 53.4267 25.3996 54.1182V61.652ZM23.3648 56.5519H21.6094C21.0442 56.5519 20.5588 56.5984 20.1465 56.6915C19.7342 56.7846 19.3885 56.9243 19.1158 57.1105C18.8432 57.2966 18.6437 57.5227 18.5174 57.782C18.3911 58.0414 18.3246 58.3406 18.3246 58.6797C18.3246 59.2582 18.5107 59.717 18.8765 60.0628C19.2422 60.4086 19.7608 60.5748 20.4191 60.5748C20.9577 60.5748 21.4564 60.4352 21.9153 60.1626C22.3741 59.8899 22.8528 59.471 23.3582 58.9125V56.5519H23.3648Z" fill="#38D0B7"/>
<path d="M38.7183 61.6387C38.7183 61.7051 38.705 61.7583 38.6784 61.8049C38.6518 61.8514 38.5986 61.8913 38.5255 61.9246C38.4523 61.9578 38.3526 61.9844 38.2329 61.9977C38.1132 62.0177 37.9669 62.0243 37.794 62.0243C37.6012 62.0243 37.4483 62.0177 37.3286 61.9977C37.2089 61.9778 37.1158 61.9578 37.0426 61.9246C36.9695 61.8913 36.923 61.8514 36.903 61.8049C36.8764 61.7583 36.8631 61.7051 36.8631 61.6387V60.1625C36.2248 60.8673 35.5997 61.3793 34.9747 61.6985C34.3563 62.0177 33.7246 62.1839 33.0862 62.1839C32.3415 62.1839 31.7164 62.0576 31.2044 61.8115C30.6991 61.5655 30.2868 61.2264 29.9676 60.8008C29.6551 60.3753 29.429 59.8765 29.2894 59.3113C29.1497 58.7461 29.0833 58.0546 29.0833 57.2434V50.4676C29.0833 50.4011 29.0966 50.3479 29.1298 50.3013C29.1564 50.2548 29.2162 50.2149 29.296 50.175C29.3758 50.1351 29.4889 50.1152 29.6219 50.1019C29.7548 50.0886 29.9211 50.0819 30.1206 50.0819C30.32 50.0819 30.4863 50.0886 30.6193 50.1019C30.7523 50.1152 30.8587 50.1418 30.9384 50.175C31.0182 50.2149 31.0714 50.2548 31.1047 50.3013C31.1379 50.3479 31.1512 50.4011 31.1512 50.4676V56.9707C31.1512 57.6224 31.1978 58.1477 31.2975 58.54C31.3906 58.9323 31.5369 59.2715 31.7297 59.5441C31.9226 59.8234 32.1686 60.0361 32.4678 60.1891C32.767 60.342 33.1128 60.4152 33.5118 60.4152C34.0238 60.4152 34.5358 60.2356 35.0412 59.8699C35.5532 59.5042 36.0918 58.9722 36.6636 58.2674V50.4676C36.6636 50.4011 36.6769 50.3479 36.7102 50.3013C36.7368 50.2548 36.7966 50.2149 36.8764 50.175C36.9562 50.1351 37.0626 50.1152 37.1956 50.1019C37.3219 50.0886 37.4882 50.0819 37.7009 50.0819C37.9004 50.0819 38.0667 50.0886 38.1997 50.1019C38.3326 50.1152 38.4324 50.1418 38.5122 50.175C38.5853 50.2149 38.6452 50.2548 38.6784 50.3013C38.7183 50.3479 38.7316 50.4011 38.7316 50.4676V61.6387H38.7183Z" fill="#38D0B7"/>
<path d="M52.1237 61.6388C52.1237 61.7052 52.1038 61.7584 52.0705 61.805C52.0373 61.8515 51.9841 61.8914 51.9109 61.9247C51.8378 61.9579 51.7314 61.9845 51.5984 61.9978C51.4654 62.0178 51.2992 62.0244 51.0997 62.0244C50.8936 62.0244 50.7207 62.0178 50.5943 61.9978C50.4613 61.9779 50.3616 61.9579 50.2818 61.9247C50.2087 61.8914 50.1555 61.8515 50.1222 61.805C50.089 61.7584 50.069 61.7052 50.069 61.6388V55.1023C50.069 54.464 50.0225 53.952 49.9227 53.5663C49.823 53.1806 49.6767 52.8415 49.4905 52.5623C49.2977 52.283 49.0517 52.0635 48.7524 51.9173C48.4532 51.771 48.1008 51.6912 47.7018 51.6912C47.1898 51.6912 46.6778 51.8707 46.1658 52.2364C45.6538 52.6021 45.1152 53.1341 44.55 53.8389V61.6388C44.55 61.7052 44.53 61.7584 44.4968 61.805C44.4635 61.8515 44.4103 61.8914 44.3372 61.9247C44.2641 61.9579 44.1577 61.9845 44.0247 61.9978C43.8917 62.0178 43.7255 62.0244 43.5193 62.0244C43.3198 62.0244 43.1536 62.0178 43.0206 61.9978C42.8876 61.9779 42.7812 61.9579 42.7014 61.9247C42.6216 61.8914 42.5684 61.8515 42.5419 61.805C42.5153 61.7584 42.502 61.7052 42.502 61.6388V50.4677C42.502 50.4012 42.5153 50.348 42.5419 50.3014C42.5684 50.2549 42.615 50.215 42.6881 50.1751C42.7613 50.1352 42.8544 50.1153 42.9741 50.102C43.0871 50.0887 43.24 50.082 43.4329 50.082C43.6124 50.082 43.7654 50.0887 43.885 50.102C44.0047 50.1153 44.0978 50.1419 44.1643 50.1751C44.2308 50.215 44.2774 50.2549 44.304 50.3014C44.3306 50.348 44.3505 50.4012 44.3505 50.4677V51.9439C44.9822 51.239 45.6072 50.727 46.2323 50.4012C46.8573 50.0754 47.489 49.9091 48.1274 49.9091C48.8721 49.9091 49.4972 50.0355 50.0092 50.2881C50.5145 50.5408 50.9268 50.8799 51.246 51.2989C51.5585 51.7178 51.7846 52.2165 51.9242 52.7817C52.0639 53.3469 52.1304 54.0318 52.1304 54.8231V61.6388H52.1237Z" fill="#38D0B7"/>
<path d="M61.4261 60.8209C61.4261 61.0603 61.4062 61.2531 61.3729 61.3928C61.3397 61.5324 61.2931 61.6388 61.2266 61.7053C61.1601 61.7718 61.0604 61.8316 60.9274 61.8915C60.7944 61.9513 60.6415 61.9979 60.4752 62.0311C60.309 62.071 60.1228 62.0976 59.9366 62.1242C59.7438 62.1508 59.5576 62.1641 59.3648 62.1641C58.7863 62.1641 58.2876 62.091 57.8753 61.9314C57.463 61.7784 57.1239 61.5457 56.8579 61.2398C56.5919 60.9273 56.3991 60.535 56.2794 60.0629C56.1597 59.5908 56.0999 59.0256 56.0999 58.3806V51.8574H54.5373C54.4109 51.8574 54.3112 51.791 54.238 51.658C54.1649 51.525 54.125 51.3122 54.125 51.013C54.125 50.8534 54.1383 50.7204 54.1582 50.614C54.1782 50.5076 54.2048 50.4145 54.238 50.348C54.2713 50.2749 54.3112 50.2283 54.371 50.2017C54.4242 50.1751 54.4841 50.1552 54.5506 50.1552H56.0999V47.5021C56.0999 47.4422 56.1132 47.389 56.1398 47.3425C56.1664 47.2959 56.2196 47.2494 56.2994 47.2095C56.3792 47.1696 56.4856 47.143 56.6185 47.1297C56.7515 47.1164 56.9178 47.1031 57.1173 47.1031C57.3234 47.1031 57.4963 47.1097 57.6293 47.1297C57.7622 47.1496 57.862 47.1762 57.9418 47.2095C58.0149 47.2494 58.0681 47.2893 58.1014 47.3425C58.1346 47.3957 58.1479 47.4489 58.1479 47.5021V50.1552H61.0138C61.0803 50.1552 61.1402 50.1685 61.1867 50.2017C61.2333 50.2283 61.2798 50.2815 61.3197 50.348C61.3596 50.4212 61.3862 50.5076 61.3995 50.614C61.4194 50.7204 61.4261 50.8534 61.4261 51.013C61.4261 51.3122 61.3862 51.525 61.3131 51.658C61.2399 51.791 61.1402 51.8574 61.0138 51.8574H58.1479V58.088C58.1479 58.8593 58.261 59.4378 58.487 59.8301C58.7131 60.2225 59.1187 60.4219 59.7105 60.4219C59.9034 60.4219 60.0696 60.402 60.2159 60.3688C60.3622 60.3289 60.4952 60.2956 60.6149 60.2491C60.7279 60.2092 60.8276 60.1693 60.9141 60.1294C60.9939 60.0895 61.0737 60.0762 61.1402 60.0762C61.1801 60.0762 61.22 60.0895 61.2599 60.1094C61.2998 60.1294 61.3264 60.1693 61.3463 60.2291C61.3663 60.289 61.3862 60.3687 61.3995 60.4618C61.4194 60.5483 61.4261 60.668 61.4261 60.8209Z" fill="#38D0B7"/>
<path d="M35.1254 85.159C35.1254 85.2255 35.1054 85.2853 35.0722 85.3319C35.0389 85.3851 34.9791 85.4183 34.8927 85.4516C34.8062 85.4782 34.6998 85.5048 34.5668 85.5247C34.4339 85.5447 34.261 85.558 34.0482 85.558C33.8554 85.558 33.6825 85.5447 33.5428 85.5247C33.4032 85.5048 33.2901 85.4782 33.2103 85.4516C33.1306 85.425 33.0707 85.3851 33.0375 85.3319C33.0042 85.2853 32.9843 85.2255 32.9843 85.159V71.1752H32.9577L27.299 85.2188C27.2724 85.2787 27.2391 85.3252 27.1926 85.3651C27.1461 85.405 27.0796 85.4449 26.9931 85.4715C26.9067 85.4981 26.8003 85.5247 26.6806 85.5314C26.5609 85.5447 26.4146 85.5513 26.255 85.5513C26.0821 85.5513 25.9359 85.5447 25.8095 85.5247C25.6832 85.5048 25.5834 85.4848 25.497 85.4582C25.4172 85.4316 25.3507 85.3917 25.3042 85.3518C25.2576 85.3119 25.231 85.2654 25.2111 85.2188L19.8051 71.1752H19.7918V85.159C19.7918 85.2255 19.7718 85.2853 19.7386 85.3319C19.7053 85.3851 19.6455 85.4183 19.559 85.4516C19.4726 85.4782 19.3595 85.5048 19.2266 85.5247C19.0936 85.5447 18.914 85.558 18.7012 85.558C18.4951 85.558 18.3289 85.5447 18.1892 85.5247C18.0562 85.5048 17.9432 85.4782 17.8634 85.4516C17.7836 85.425 17.7304 85.3851 17.6972 85.3319C17.6706 85.2853 17.6506 85.2255 17.6506 85.159V70.3972C17.6506 70.0514 17.7437 69.8054 17.9299 69.6525C18.1161 69.4995 18.3222 69.4264 18.5483 69.4264H19.8583C20.1242 69.4264 20.3636 69.453 20.5631 69.4995C20.7626 69.5527 20.9421 69.6259 21.095 69.7323C21.248 69.8387 21.3743 69.9783 21.4741 70.1445C21.5738 70.3108 21.6603 70.5036 21.74 70.7297L26.3282 82.3529H26.388L31.1623 70.7629C31.2554 70.5169 31.3552 70.3041 31.4682 70.1312C31.5746 69.9584 31.6943 69.8187 31.8273 69.719C31.9603 69.6126 32.0999 69.5394 32.2595 69.4929C32.4191 69.4463 32.6053 69.4264 32.8114 69.4264H34.1878C34.3142 69.4264 34.4339 69.4463 34.5469 69.4796C34.6599 69.5128 34.7597 69.5727 34.8395 69.6525C34.9193 69.7323 34.9858 69.832 35.0323 69.9517C35.0855 70.0714 35.1054 70.2177 35.1054 70.3906V85.159H35.1254Z" fill="#38D0B7"/>
<path d="M47.5734 85.1857C47.5734 85.2854 47.5402 85.3586 47.4737 85.4118C47.4072 85.4583 47.3141 85.4982 47.201 85.5248C47.0814 85.5514 46.9151 85.5647 46.689 85.5647C46.4762 85.5647 46.3034 85.5514 46.177 85.5248C46.0507 85.4982 45.9576 85.465 45.8977 85.4118C45.8379 85.3586 45.8113 85.2854 45.8113 85.1857V84.0686C45.3259 84.5872 44.7806 84.9929 44.1822 85.2854C43.5837 85.578 42.9454 85.7176 42.2738 85.7176C41.6886 85.7176 41.1567 85.6445 40.6779 85.4916C40.1992 85.3386 39.8002 85.1192 39.4611 84.8266C39.1286 84.534 38.8693 84.1816 38.6831 83.7627C38.4969 83.3438 38.4038 82.8584 38.4038 82.3264C38.4038 81.6947 38.5301 81.1495 38.7895 80.6907C39.0488 80.2252 39.4145 79.8462 39.8933 79.5337C40.3721 79.2278 40.9572 78.995 41.6554 78.8488C42.3469 78.6958 43.1316 78.616 44.0026 78.616H45.5387V77.7449C45.5387 77.3127 45.4921 76.9337 45.4057 76.6012C45.3126 76.2688 45.1663 75.9961 44.9668 75.7767C44.7607 75.5573 44.5014 75.391 44.1822 75.278C43.863 75.165 43.464 75.1118 42.9919 75.1118C42.4866 75.1118 42.0344 75.1716 41.6354 75.2913C41.2365 75.411 40.8841 75.544 40.5782 75.6903C40.279 75.8366 40.0263 75.9695 39.8201 76.0892C39.614 76.2089 39.4677 76.2688 39.368 76.2688C39.3015 76.2688 39.2416 76.2488 39.1951 76.2156C39.1419 76.1823 39.102 76.1358 39.0621 76.0693C39.0222 76.0028 38.9956 75.9163 38.9823 75.8166C38.9624 75.7102 38.9557 75.5972 38.9557 75.4775C38.9557 75.2714 38.969 75.1051 38.9956 74.9854C39.0222 74.8657 39.0954 74.7527 39.2084 74.6463C39.3214 74.5399 39.5143 74.4136 39.7869 74.2673C40.0595 74.121 40.372 73.988 40.7311 73.8683C41.0835 73.7486 41.4759 73.6489 41.8948 73.5691C42.3137 73.4893 42.7393 73.4494 43.1715 73.4494C43.976 73.4494 44.6543 73.5425 45.2195 73.722C45.7847 73.9016 46.2369 74.1675 46.5826 74.52C46.9284 74.8724 47.1811 75.3046 47.3407 75.8299C47.5003 76.3486 47.5734 76.9603 47.5734 77.6519V85.1857ZM45.5387 80.0856H43.7899C43.2247 80.0856 42.7393 80.1321 42.327 80.2252C41.9147 80.3183 41.569 80.4579 41.2963 80.6441C41.0237 80.8303 40.8242 81.0564 40.6979 81.3157C40.5715 81.575 40.505 81.8743 40.505 82.2134C40.505 82.7919 40.6912 83.2507 41.0569 83.5965C41.4227 83.9422 41.9413 84.1085 42.5996 84.1085C43.1382 84.1085 43.6369 83.9688 44.0957 83.6962C44.5546 83.4236 45.0333 83.0047 45.5387 82.4461V80.0856Z" fill="#38D0B7"/>
<path d="M61.6035 79.4141C61.6035 80.3916 61.4971 81.2693 61.2844 82.0473C61.0716 82.8253 60.7657 83.4836 60.3534 84.0288C59.9412 84.5741 59.4358 84.9864 58.8307 85.2789C58.2256 85.5715 57.5341 85.7178 56.7561 85.7178C56.4236 85.7178 56.1177 85.6845 55.8385 85.6181C55.5592 85.5516 55.2799 85.4518 55.0139 85.3055C54.748 85.1659 54.4753 84.9864 54.216 84.7736C53.95 84.5608 53.6707 84.3081 53.3715 84.0155V89.6011C53.3715 89.6676 53.3516 89.7274 53.3183 89.774C53.2851 89.8205 53.2319 89.8671 53.1587 89.9003C53.0856 89.9335 52.9792 89.9601 52.8462 89.9734C52.7132 89.9934 52.547 90 52.3409 90C52.1414 90 51.9751 89.9934 51.8421 89.9734C51.7092 89.9535 51.6028 89.9335 51.523 89.9003C51.4432 89.8671 51.39 89.8272 51.3634 89.774C51.3368 89.7274 51.3235 89.6676 51.3235 89.6011V74.0015C51.3235 73.9283 51.3368 73.8685 51.3634 73.8219C51.39 73.7754 51.4365 73.7355 51.5097 73.7022C51.5828 73.669 51.6759 73.649 51.7956 73.6357C51.9086 73.6224 52.0549 73.6158 52.2145 73.6158C52.3874 73.6158 52.527 73.6224 52.6401 73.6357C52.7531 73.649 52.8462 73.669 52.9194 73.7022C52.9925 73.7355 53.0457 73.7754 53.0723 73.8219C53.0989 73.8685 53.1188 73.9283 53.1188 74.0015V75.5042C53.458 75.1585 53.7838 74.8526 54.0963 74.5999C54.4088 74.3406 54.728 74.1278 55.0472 73.9616C55.3663 73.7953 55.6922 73.6623 56.0246 73.5759C56.3571 73.4895 56.7162 73.4429 57.0819 73.4429C57.8931 73.4429 58.5847 73.6025 59.1565 73.915C59.7284 74.2275 60.1938 74.6598 60.5529 75.205C60.912 75.7503 61.178 76.3886 61.3442 77.1068C61.5237 77.8382 61.6035 78.6029 61.6035 79.4141ZM59.4824 79.6468C59.4824 79.075 59.4358 78.5231 59.3494 77.9911C59.2629 77.4592 59.11 76.9871 58.8972 76.5681C58.6844 76.1559 58.3985 75.8234 58.0394 75.5774C57.6804 75.3313 57.2348 75.205 56.7029 75.205C56.4369 75.205 56.1709 75.2449 55.9183 75.3247C55.6589 75.4045 55.3996 75.5308 55.1336 75.6971C54.8676 75.8633 54.5884 76.0894 54.2958 76.3687C54.0032 76.6479 53.6973 76.9871 53.3715 77.3927V81.8345C53.9367 82.5194 54.4753 83.0447 54.9807 83.4104C55.486 83.7762 56.018 83.9557 56.5766 83.9557C57.0952 83.9557 57.5341 83.8293 57.9064 83.5833C58.2788 83.3373 58.578 83.0048 58.8041 82.5926C59.0302 82.1803 59.2031 81.7148 59.3095 81.2028C59.4292 80.6908 59.4824 80.1721 59.4824 79.6468Z" fill="#38D0B7"/>
<path d="M13.7763 43.0602H10.9038C9.74012 43.0602 8.7959 42.116 8.7959 40.9524V38.0798C8.7959 36.9161 9.74012 35.9719 10.9038 35.9719H13.7763C14.94 35.9719 15.8842 36.9161 15.8842 38.0798V40.9524C15.8842 42.1227 14.94 43.0602 13.7763 43.0602Z" fill="url(#paint0_linear_3243_3766)"/>
<path d="M8.7959 39.5208C8.7959 41.4782 10.3827 43.065 12.3401 43.065C14.2974 43.065 15.8842 41.4782 15.8842 39.5208C15.8842 37.5634 14.2974 35.9767 12.3401 35.9767C10.3827 35.9767 8.7959 37.5634 8.7959 39.5208Z" fill="url(#paint1_linear_3243_3766)"/>
<path d="M24.5749 10.9167C24.7146 13.244 24.2691 15.5979 23.2783 17.7058C21.9949 20.4388 20.1663 22.8857 18.504 25.3926C17.1408 27.4473 15.6979 29.4554 14.2616 31.4635C13.7496 32.1817 13.1977 33.1525 12.1604 32.8533C11.3226 32.6139 10.6975 31.7495 10.2254 31.0646C8.6096 28.7107 6.96053 26.3701 5.33806 24.0162C3.33658 21.1037 0.809787 18.0383 0.184739 14.4675C-0.460258 10.8037 0.603654 6.94037 3.06395 4.1476C6.55491 0.171225 12.4463 -1.09217 17.2871 0.995757C20.2594 2.2791 22.7463 4.6729 23.9033 7.71835C24.0762 8.17051 24.2159 8.63598 24.3223 9.10144C24.4619 9.69989 24.535 10.305 24.5749 10.9167Z" fill="url(#paint2_linear_3243_3766)"/>
<defs>
<linearGradient id="paint0_linear_3243_3766" x1="12.3401" y1="35.9719" x2="12.3401" y2="43.0602" gradientUnits="userSpaceOnUse">
<stop stop-color="#38D0B7"/>
<stop offset="1" stop-color="#35B3EA"/>
</linearGradient>
<linearGradient id="paint1_linear_3243_3766" x1="12.3401" y1="35.9767" x2="12.3401" y2="43.065" gradientUnits="userSpaceOnUse">
<stop stop-color="#38D0B7"/>
<stop offset="1" stop-color="#35B3EA"/>
</linearGradient>
<linearGradient id="paint2_linear_3243_3766" x1="12.3" y1="-6.10352e-05" x2="12.3" y2="32.9089" gradientUnits="userSpaceOnUse">
<stop stop-color="#38D0B7"/>
<stop offset="1" stop-color="#35B3EA"/>
</linearGradient>
</defs>
</svg>
